<?xml version="1.0" encoding="UTF-8" standalone="no"?>
<!DOCTYPE svg PUBLIC "-//W3C//DTD SVG 1.1//EN"
 "http://www.w3.org/Graphics/SVG/1.1/DTD/svg11.dtd">
<!-- Generated by graphviz version 5.0.0 (20220707.1540)
 -->
<!-- Title: dependencies Pages: 1 -->
<svg width="527pt" height="174pt"
 viewBox="0.00 0.00 527.00 173.80" xmlns="http://www.w3.org/2000/svg" xmlns:xlink="http://www.w3.org/1999/xlink">
<g id="graph0" class="graph" transform="scale(1 1) rotate(0) translate(4 169.8)">
<title>dependencies</title>
<polygon fill="white" stroke="transparent" points="-4,4 -4,-169.8 523,-169.8 523,4 -4,4"/>
<text text-anchor="middle" x="259.5" y="-8.2" font-family="sans-serif" font-size="14.00">dependencies</text>
<g id="clust1" class="cluster">
<title>cluster_HighlightCardModule</title>
<polygon fill="none" stroke="black" stroke-dasharray="1,5" points="8,-32.8 8,-157.8 511,-157.8 511,-32.8 8,-32.8"/>
</g>
<g id="clust6" class="cluster">
<title>cluster_HighlightCardModule_providers</title>
<polygon fill="none" stroke="black" points="295,-40.8 295,-92.8 503,-92.8 503,-40.8 295,-40.8"/>
</g>
<g id="clust3" class="cluster">
<title>cluster_HighlightCardModule_imports</title>
<polygon fill="none" stroke="black" points="16,-40.8 16,-92.8 287,-92.8 287,-40.8 16,-40.8"/>
</g>
<!-- GithubModule -->
<g id="node1" class="node">
<title>GithubModule</title>
<polygon fill="#8dd3c7" stroke="black" points="279.44,-84.8 276.44,-88.8 255.44,-88.8 252.44,-84.8 180.56,-84.8 180.56,-48.8 279.44,-48.8 279.44,-84.8"/>
<text text-anchor="middle" x="230" y="-62.6" font-family="Times,serif" font-size="14.00">GithubModule</text>
</g>
<!-- HighlightCardModule -->
<g id="node3" class="node">
<title>HighlightCardModule</title>
<polygon fill="#8dd3c7" stroke="black" points="300.44,-149.8 297.44,-153.8 276.44,-153.8 273.44,-149.8 159.56,-149.8 159.56,-113.8 300.44,-113.8 300.44,-149.8"/>
<text text-anchor="middle" x="230" y="-127.6" font-family="Times,serif" font-size="14.00">HighlightCardModule</text>
</g>
<!-- GithubModule&#45;&gt;HighlightCardModule -->
<g id="edge1" class="edge">
<title>GithubModule&#45;&gt;HighlightCardModule</title>
<path fill="none" stroke="black" d="M230,-84.91C230,-84.91 230,-103.79 230,-103.79"/>
<polygon fill="black" stroke="black" points="226.5,-103.79 230,-113.79 233.5,-103.79 226.5,-103.79"/>
</g>
<!-- S3FileStorageModule -->
<g id="node2" class="node">
<title>S3FileStorageModule</title>
<polygon fill="#8dd3c7" stroke="black" points="162.38,-84.8 159.38,-88.8 138.38,-88.8 135.38,-84.8 23.62,-84.8 23.62,-48.8 162.38,-48.8 162.38,-84.8"/>
<text text-anchor="middle" x="93" y="-62.6" font-family="Times,serif" font-size="14.00">S3FileStorageModule</text>
</g>
<!-- S3FileStorageModule&#45;&gt;HighlightCardModule -->
<g id="edge2" class="edge">
<title>S3FileStorageModule&#45;&gt;HighlightCardModule</title>
<path fill="none" stroke="black" d="M162.59,-66.8C168.11,-66.8 171.61,-66.8 171.61,-66.8 171.61,-66.8 171.61,-103.69 171.61,-103.69"/>
<polygon fill="black" stroke="black" points="168.11,-103.69 171.61,-113.69 175.11,-103.69 168.11,-103.69"/>
</g>
<!-- HighlightCardService -->
<g id="node4" class="node">
<title>HighlightCardService</title>
<ellipse fill="#fdb462" stroke="black" cx="399" cy="-66.8" rx="95.57" ry="18"/>
<text text-anchor="middle" x="399" y="-62.6" font-family="Times,serif" font-size="14.00">HighlightCardService</text>
</g>
<!-- HighlightCardService&#45;&gt;HighlightCardModule -->
<g id="edge3" class="edge">
<title>HighlightCardService&#45;&gt;HighlightCardModule</title>
<path fill="none" stroke="black" d="M303.12,-66.8C294.95,-66.8 289.72,-66.8 289.72,-66.8 289.72,-66.8 289.72,-103.69 289.72,-103.69"/>
<polygon fill="black" stroke="black" points="286.22,-103.69 289.72,-113.69 293.22,-103.69 286.22,-103.69"/>
</g>
</g>
</svg>
