<?xml version="1.0" encoding="UTF-8" standalone="no"?>
<!DOCTYPE svg PUBLIC "-//W3C//DTD SVG 1.1//EN"
 "http://www.w3.org/Graphics/SVG/1.1/DTD/svg11.dtd">
<!-- Generated by graphviz version 5.0.0 (20220707.1540)
 -->
<!-- Title: dependencies Pages: 1 -->
<svg width="527pt" height="174pt"
 viewBox="0.00 0.00 527.00 173.80" xmlns="http://www.w3.org/2000/svg" xmlns:xlink="http://www.w3.org/1999/xlink">
<g id="graph0" class="graph" transform="scale(1 1) rotate(0) translate(4 169.8)">
<title>dependencies</title>
<polygon fill="white" stroke="transparent" points="-4,4 -4,-169.8 523,-169.8 523,4 -4,4"/>
<text text-anchor="middle" x="259.5" y="-8.2" font-family="sans-serif" font-size="14.00">dependencies</text>
<g id="clust1" class="cluster">
<title>cluster_HighlightCardModule</title>
<polygon fill="none" stroke="black" stroke-dasharray="1,5" points="8,-32.8 8,-157.8 511,-157.8 511,-32.8 8,-32.8"/>
</g>
<g id="clust3" class="cluster">
<title>cluster_HighlightCardModule_imports</title>
<polygon fill="none" stroke="black" points="232,-40.8 232,-92.8 503,-92.8 503,-40.8 232,-40.8"/>
</g>
<g id="clust6" class="cluster">
<title>cluster_HighlightCardModule_providers</title>
<polygon fill="none" stroke="black" points="16,-40.8 16,-92.8 224,-92.8 224,-40.8 16,-40.8"/>
</g>
<!-- GithubModule -->
<g id="node1" class="node">
<title>GithubModule</title>
<polygon fill="#8dd3c7" stroke="black" points="495.44,-84.8 492.44,-88.8 471.44,-88.8 468.44,-84.8 396.56,-84.8 396.56,-48.8 495.44,-48.8 495.44,-84.8"/>
<text text-anchor="middle" x="446" y="-62.6" font-family="Times,serif" font-size="14.00">GithubModule</text>
</g>
<!-- HighlightCardModule -->
<g id="node3" class="node">
<title>HighlightCardModule</title>
<polygon fill="#8dd3c7" stroke="black" points="379.44,-149.8 376.44,-153.8 355.44,-153.8 352.44,-149.8 238.56,-149.8 238.56,-113.8 379.44,-113.8 379.44,-149.8"/>
<text text-anchor="middle" x="309" y="-127.6" font-family="Times,serif" font-size="14.00">HighlightCardModule</text>
</g>
<!-- GithubModule&#45;&gt;HighlightCardModule -->
<g id="edge1" class="edge">
<title>GithubModule&#45;&gt;HighlightCardModule</title>
<path fill="none" stroke="black" d="M446,-84.91C446,-104.14 446,-131.8 446,-131.8 446,-131.8 389.51,-131.8 389.51,-131.8"/>
<polygon fill="black" stroke="black" points="389.51,-128.3 379.51,-131.8 389.51,-135.3 389.51,-128.3"/>
</g>
<!-- S3FileStorageModule -->
<g id="node2" class="node">
<title>S3FileStorageModule</title>
<polygon fill="#8dd3c7" stroke="black" points="378.38,-84.8 375.38,-88.8 354.38,-88.8 351.38,-84.8 239.62,-84.8 239.62,-48.8 378.38,-48.8 378.38,-84.8"/>
<text text-anchor="middle" x="309" y="-62.6" font-family="Times,serif" font-size="14.00">S3FileStorageModule</text>
</g>
<!-- S3FileStorageModule&#45;&gt;HighlightCardModule -->
<g id="edge2" class="edge">
<title>S3FileStorageModule&#45;&gt;HighlightCardModule</title>
<path fill="none" stroke="black" d="M309,-84.91C309,-84.91 309,-103.79 309,-103.79"/>
<polygon fill="black" stroke="black" points="305.5,-103.79 309,-113.79 312.5,-103.79 305.5,-103.79"/>
</g>
<!-- HighlightCardService -->
<g id="node4" class="node">
<title>HighlightCardService</title>
<ellipse fill="#fdb462" stroke="black" cx="120" cy="-66.8" rx="95.57" ry="18"/>
<text text-anchor="middle" x="120" y="-62.6" font-family="Times,serif" font-size="14.00">HighlightCardService</text>
</g>
<!-- HighlightCardService&#45;&gt;HighlightCardModule -->
<g id="edge3" class="edge">
<title>HighlightCardService&#45;&gt;HighlightCardModule</title>
<path fill="none" stroke="black" d="M120,-84.91C120,-104.14 120,-131.8 120,-131.8 120,-131.8 228.62,-131.8 228.62,-131.8"/>
<polygon fill="black" stroke="black" points="228.62,-135.3 238.62,-131.8 228.62,-128.3 228.62,-135.3"/>
</g>
</g>
</svg>
