<?xml version="1.0" encoding="UTF-8" standalone="no"?>
<!DOCTYPE svg PUBLIC "-//W3C//DTD SVG 1.1//EN"
 "http://www.w3.org/Graphics/SVG/1.1/DTD/svg11.dtd">
<!-- Generated by graphviz version 5.0.0 (20220707.1540)
 -->
<!-- Title: dependencies Pages: 1 -->
<svg width="1689pt" height="318pt"
 viewBox="0.00 0.00 1689.00 317.80" xmlns="http://www.w3.org/2000/svg" xmlns:xlink="http://www.w3.org/1999/xlink">
<g id="graph0" class="graph" transform="scale(1 1) rotate(0) translate(4 313.8)">
<title>dependencies</title>
<polygon fill="white" stroke="transparent" points="-4,4 -4,-313.8 1685,-313.8 1685,4 -4,4"/>
<text text-anchor="middle" x="840.5" y="-8.2" font-family="sans-serif" font-size="14.00">dependencies</text>
<g id="clust1" class="cluster">
<title>cluster_AppModule</title>
<polygon fill="none" stroke="black" stroke-dasharray="1,5" points="402,-100.8 402,-301.8 861,-301.8 861,-100.8 402,-100.8"/>
</g>
<g id="clust3" class="cluster">
<title>cluster_AppModule_imports</title>
<polygon fill="none" stroke="black" points="422,-108.8 422,-236.8 853,-236.8 853,-108.8 422,-108.8"/>
</g>
<g id="clust7" class="cluster">
<title>cluster_GithubModule</title>
<polygon fill="none" stroke="black" stroke-dasharray="1,5" points="1507,-32.8 1507,-244.8 1673,-244.8 1673,-32.8 1507,-32.8"/>
</g>
<g id="clust10" class="cluster">
<title>cluster_GithubModule_exports</title>
<polygon fill="none" stroke="black" points="1515,-184.8 1515,-236.8 1631,-236.8 1631,-184.8 1515,-184.8"/>
</g>
<g id="clust12" class="cluster">
<title>cluster_GithubModule_providers</title>
<polygon fill="none" stroke="black" points="1515,-40.8 1515,-92.8 1665,-92.8 1665,-40.8 1515,-40.8"/>
</g>
<g id="clust19" class="cluster">
<title>cluster_HighlightCardModule</title>
<polygon fill="none" stroke="black" stroke-dasharray="1,5" points="869,-100.8 869,-168.8 1093,-168.8 1093,-100.8 869,-100.8"/>
</g>
<g id="clust24" class="cluster">
<title>cluster_HighlightCardModule_providers</title>
<polygon fill="none" stroke="black" points="877,-108.8 877,-160.8 1085,-160.8 1085,-108.8 877,-108.8"/>
</g>
<g id="clust25" class="cluster">
<title>cluster_InsightCardModule</title>
<polygon fill="none" stroke="black" stroke-dasharray="1,5" points="1101,-100.8 1101,-168.8 1305,-168.8 1305,-100.8 1101,-100.8"/>
</g>
<g id="clust30" class="cluster">
<title>cluster_InsightCardModule_providers</title>
<polygon fill="none" stroke="black" points="1109,-108.8 1109,-160.8 1297,-160.8 1297,-108.8 1109,-108.8"/>
</g>
<g id="clust31" class="cluster">
<title>cluster_S3FileStorageModule</title>
<polygon fill="none" stroke="black" stroke-dasharray="1,5" points="8,-176.8 8,-244.8 394,-244.8 394,-176.8 8,-176.8"/>
</g>
<g id="clust34" class="cluster">
<title>cluster_S3FileStorageModule_exports</title>
<polygon fill="none" stroke="black" points="230,-184.8 230,-236.8 386,-236.8 386,-184.8 230,-184.8"/>
</g>
<g id="clust36" class="cluster">
<title>cluster_S3FileStorageModule_providers</title>
<polygon fill="none" stroke="black" points="16,-184.8 16,-236.8 222,-236.8 222,-184.8 16,-184.8"/>
</g>
<g id="clust37" class="cluster">
<title>cluster_UserCardModule</title>
<polygon fill="none" stroke="black" stroke-dasharray="1,5" points="1313,-100.8 1313,-168.8 1499,-168.8 1499,-100.8 1313,-100.8"/>
</g>
<g id="clust42" class="cluster">
<title>cluster_UserCardModule_providers</title>
<polygon fill="none" stroke="black" points="1321,-108.8 1321,-160.8 1491,-160.8 1491,-108.8 1321,-108.8"/>
</g>
<!-- HighlightCardModule -->
<g id="node1" class="node">
<title>HighlightCardModule</title>
<polygon fill="#8dd3c7" stroke="black" points="570.44,-228.8 567.44,-232.8 546.44,-232.8 543.44,-228.8 429.56,-228.8 429.56,-192.8 570.44,-192.8 570.44,-228.8"/>
<text text-anchor="middle" x="500" y="-206.6" font-family="Times,serif" font-size="14.00">HighlightCardModule</text>
</g>
<!-- AppModule -->
<g id="node5" class="node">
<title>AppModule</title>
<polygon fill="#8dd3c7" stroke="black" points="616.66,-293.8 613.66,-297.8 592.66,-297.8 589.66,-293.8 533.34,-293.8 533.34,-257.8 616.66,-257.8 616.66,-293.8"/>
<text text-anchor="middle" x="575" y="-271.6" font-family="Times,serif" font-size="14.00">AppModule</text>
</g>
<!-- HighlightCardModule&#45;&gt;AppModule -->
<g id="edge1" class="edge">
<title>HighlightCardModule&#45;&gt;AppModule</title>
<path fill="none" stroke="black" d="M551.69,-228.91C551.69,-228.91 551.69,-247.79 551.69,-247.79"/>
<polygon fill="black" stroke="black" points="548.19,-247.79 551.69,-257.79 555.19,-247.79 548.19,-247.79"/>
</g>
<!-- InsightCardModule -->
<g id="node2" class="node">
<title>InsightCardModule</title>
<polygon fill="#8dd3c7" stroke="black" points="713.66,-228.8 710.66,-232.8 689.66,-232.8 686.66,-228.8 588.34,-228.8 588.34,-192.8 713.66,-192.8 713.66,-228.8"/>
<text text-anchor="middle" x="651" y="-206.6" font-family="Times,serif" font-size="14.00">InsightCardModule</text>
</g>
<!-- InsightCardModule&#45;&gt;AppModule -->
<g id="edge2" class="edge">
<title>InsightCardModule&#45;&gt;AppModule</title>
<path fill="none" stroke="black" d="M602.5,-228.91C602.5,-228.91 602.5,-247.79 602.5,-247.79"/>
<polygon fill="black" stroke="black" points="599,-247.79 602.5,-257.79 606,-247.79 599,-247.79"/>
</g>
<!-- S3FileStorageModule -->
<g id="node3" class="node">
<title>S3FileStorageModule</title>
<polygon fill="#8dd3c7" stroke="black" points="568.38,-152.8 565.38,-156.8 544.38,-156.8 541.38,-152.8 429.62,-152.8 429.62,-116.8 568.38,-116.8 568.38,-152.8"/>
<text text-anchor="middle" x="499" y="-130.6" font-family="Times,serif" font-size="14.00">S3FileStorageModule</text>
</g>
<!-- S3FileStorageModule&#45;&gt;HighlightCardModule -->
<g id="edge8" class="edge">
<title>S3FileStorageModule&#45;&gt;HighlightCardModule</title>
<path fill="none" stroke="black" d="M476,-152.81C476,-152.81 476,-182.65 476,-182.65"/>
<polygon fill="black" stroke="black" points="472.5,-182.65 476,-192.65 479.5,-182.65 472.5,-182.65"/>
</g>
<!-- S3FileStorageModule&#45;&gt;InsightCardModule -->
<g id="edge11" class="edge">
<title>S3FileStorageModule&#45;&gt;InsightCardModule</title>
<path fill="none" stroke="black" d="M568.45,-138.8C595.25,-138.8 619.59,-138.8 619.59,-138.8 619.59,-138.8 619.59,-182.63 619.59,-182.63"/>
<polygon fill="black" stroke="black" points="616.09,-182.63 619.59,-192.63 623.09,-182.63 616.09,-182.63"/>
</g>
<!-- UserCardModule -->
<g id="node4" class="node">
<title>UserCardModule</title>
<polygon fill="#8dd3c7" stroke="black" points="844.7,-228.8 841.7,-232.8 820.7,-232.8 817.7,-228.8 731.3,-228.8 731.3,-192.8 844.7,-192.8 844.7,-228.8"/>
<text text-anchor="middle" x="788" y="-206.6" font-family="Times,serif" font-size="14.00">UserCardModule</text>
</g>
<!-- S3FileStorageModule&#45;&gt;UserCardModule -->
<g id="edge16" class="edge">
<title>S3FileStorageModule&#45;&gt;UserCardModule</title>
<path fill="none" stroke="black" d="M568.59,-131.8C654.11,-131.8 788,-131.8 788,-131.8 788,-131.8 788,-182.48 788,-182.48"/>
<polygon fill="black" stroke="black" points="784.5,-182.48 788,-192.48 791.5,-182.48 784.5,-182.48"/>
</g>
<!-- S3FileStorageModule&#45;&gt;AppModule -->
<g id="edge3" class="edge">
<title>S3FileStorageModule&#45;&gt;AppModule</title>
<path fill="none" stroke="black" d="M568.45,-145.8C576.66,-145.8 582.19,-145.8 582.19,-145.8 582.19,-145.8 582.19,-247.72 582.19,-247.72"/>
<polygon fill="black" stroke="black" points="578.69,-247.72 582.19,-257.72 585.69,-247.72 578.69,-247.72"/>
</g>
<!-- S3FileStorageService  -->
<g id="node11" class="node">
<title>S3FileStorageService </title>
<polygon fill="#fb8072" stroke="black" points="378.31,-228.8 237.69,-228.8 237.69,-192.8 378.31,-192.8 378.31,-228.8"/>
<text text-anchor="middle" x="308" y="-206.6" font-family="Times,serif" font-size="14.00">S3FileStorageService </text>
</g>
<!-- S3FileStorageModule&#45;&gt;S3FileStorageService  -->
<g id="edge13" class="edge">
<title>S3FileStorageModule&#45;&gt;S3FileStorageService </title>
<path fill="none" stroke="black" stroke-dasharray="5,2" d="M429.5,-140.8C374.89,-140.8 308,-140.8 308,-140.8 308,-140.8 308,-182.77 308,-182.77"/>
<polygon fill="black" stroke="black" points="304.5,-182.77 308,-192.77 311.5,-182.77 304.5,-182.77"/>
</g>
<!-- UserCardModule&#45;&gt;AppModule -->
<g id="edge4" class="edge">
<title>UserCardModule&#45;&gt;AppModule</title>
<path fill="none" stroke="black" d="M788,-228.91C788,-248.14 788,-275.8 788,-275.8 788,-275.8 626.83,-275.8 626.83,-275.8"/>
<polygon fill="black" stroke="black" points="626.83,-272.3 616.83,-275.8 626.83,-279.3 626.83,-272.3"/>
</g>
<!-- GithubService  -->
<g id="node6" class="node">
<title>GithubService </title>
<polygon fill="#fb8072" stroke="black" points="1623.37,-228.8 1522.63,-228.8 1522.63,-192.8 1623.37,-192.8 1623.37,-228.8"/>
<text text-anchor="middle" x="1573" y="-206.6" font-family="Times,serif" font-size="14.00">GithubService </text>
</g>
<!-- GithubModule -->
<g id="node7" class="node">
<title>GithubModule</title>
<polygon fill="#8dd3c7" stroke="black" points="1613.44,-152.8 1610.44,-156.8 1589.44,-156.8 1586.44,-152.8 1514.56,-152.8 1514.56,-116.8 1613.44,-116.8 1613.44,-152.8"/>
<text text-anchor="middle" x="1564" y="-130.6" font-family="Times,serif" font-size="14.00">GithubModule</text>
</g>
<!-- GithubModule&#45;&gt;HighlightCardModule -->
<g id="edge7" class="edge">
<title>GithubModule&#45;&gt;HighlightCardModule</title>
<path fill="none" stroke="black" d="M1516.79,-153.01C1516.79,-158.35 1516.79,-162.8 1516.79,-162.8 1516.79,-162.8 522.22,-162.8 522.22,-162.8 522.22,-162.8 522.22,-182.65 522.22,-182.65"/>
<polygon fill="black" stroke="black" points="518.72,-182.65 522.22,-192.65 525.72,-182.65 518.72,-182.65"/>
</g>
<!-- GithubModule&#45;&gt;InsightCardModule -->
<g id="edge10" class="edge">
<title>GithubModule&#45;&gt;InsightCardModule</title>
<path fill="none" stroke="black" d="M1518.8,-152.95C1518.8,-166.54 1518.8,-182.8 1518.8,-182.8 1518.8,-182.8 682.41,-182.8 682.41,-182.8 682.41,-182.8 682.41,-183.78 682.41,-183.78"/>
<polygon fill="black" stroke="black" points="678.91,-182.59 682.41,-192.59 685.91,-182.59 678.91,-182.59"/>
</g>
<!-- GithubModule&#45;&gt;UserCardModule -->
<g id="edge15" class="edge">
<title>GithubModule&#45;&gt;UserCardModule</title>
<path fill="none" stroke="black" d="M1520.81,-153C1520.81,-177.16 1520.81,-216.8 1520.81,-216.8 1520.81,-216.8 854.89,-216.8 854.89,-216.8"/>
<polygon fill="black" stroke="black" points="854.89,-213.3 844.89,-216.8 854.89,-220.3 854.89,-213.3"/>
</g>
<!-- GithubModule&#45;&gt;GithubService  -->
<g id="edge5" class="edge">
<title>GithubModule&#45;&gt;GithubService </title>
<path fill="none" stroke="black" stroke-dasharray="5,2" d="M1568.02,-152.81C1568.02,-152.81 1568.02,-182.65 1568.02,-182.65"/>
<polygon fill="black" stroke="black" points="1564.52,-182.65 1568.02,-192.65 1571.52,-182.65 1564.52,-182.65"/>
</g>
<!-- GithubService -->
<g id="node8" class="node">
<title>GithubService</title>
<ellipse fill="#fdb462" stroke="black" cx="1590" cy="-66.8" rx="66.64" ry="18"/>
<text text-anchor="middle" x="1590" y="-62.6" font-family="Times,serif" font-size="14.00">GithubService</text>
</g>
<!-- GithubService&#45;&gt;GithubModule -->
<g id="edge6" class="edge">
<title>GithubService&#45;&gt;GithubModule</title>
<path fill="none" stroke="black" d="M1568.2,-83.96C1568.2,-83.96 1568.2,-106.45 1568.2,-106.45"/>
<polygon fill="black" stroke="black" points="1564.7,-106.45 1568.2,-116.45 1571.7,-106.45 1564.7,-106.45"/>
</g>
<!-- HighlightCardService -->
<g id="node9" class="node">
<title>HighlightCardService</title>
<ellipse fill="#fdb462" stroke="black" cx="981" cy="-134.8" rx="95.57" ry="18"/>
<text text-anchor="middle" x="981" y="-130.6" font-family="Times,serif" font-size="14.00">HighlightCardService</text>
</g>
<!-- HighlightCardService&#45;&gt;HighlightCardModule -->
<g id="edge9" class="edge">
<title>HighlightCardService&#45;&gt;HighlightCardModule</title>
<path fill="none" stroke="black" d="M901.03,-124.8C783.05,-124.8 576.2,-124.8 576.2,-124.8 576.2,-124.8 576.2,-210.8 576.2,-210.8 576.2,-210.8 575.6,-210.8 575.6,-210.8"/>
<polygon fill="black" stroke="black" points="580.22,-207.3 570.22,-210.8 580.22,-214.3 580.22,-207.3"/>
</g>
<!-- InsightCardService -->
<g id="node10" class="node">
<title>InsightCardService</title>
<ellipse fill="#fdb462" stroke="black" cx="1203" cy="-134.8" rx="85.68" ry="18"/>
<text text-anchor="middle" x="1203" y="-130.6" font-family="Times,serif" font-size="14.00">InsightCardService</text>
</g>
<!-- InsightCardService&#45;&gt;InsightCardModule -->
<g id="edge12" class="edge">
<title>InsightCardService&#45;&gt;InsightCardModule</title>
<path fill="none" stroke="black" d="M1203,-152.91C1203,-162.7 1203,-172.8 1203,-172.8 1203,-172.8 651,-172.8 651,-172.8 651,-172.8 651,-182.69 651,-182.69"/>
<polygon fill="black" stroke="black" points="647.5,-182.69 651,-192.69 654.5,-182.69 647.5,-182.69"/>
</g>
<!-- S3FileStorageService -->
<g id="node12" class="node">
<title>S3FileStorageService</title>
<ellipse fill="#fdb462" stroke="black" cx="119" cy="-210.8" rx="94.93" ry="18"/>
<text text-anchor="middle" x="119" y="-206.6" font-family="Times,serif" font-size="14.00">S3FileStorageService</text>
</g>
<!-- S3FileStorageService&#45;&gt;S3FileStorageModule -->
<g id="edge14" class="edge">
<title>S3FileStorageService&#45;&gt;S3FileStorageModule</title>
<path fill="none" stroke="black" d="M119,-192.6C119,-168.44 119,-128.8 119,-128.8 119,-128.8 419.3,-128.8 419.3,-128.8"/>
<polygon fill="black" stroke="black" points="419.3,-132.3 429.3,-128.8 419.3,-125.3 419.3,-132.3"/>
</g>
<!-- UserCardService -->
<g id="node13" class="node">
<title>UserCardService</title>
<ellipse fill="#fdb462" stroke="black" cx="1406" cy="-134.8" rx="77" ry="18"/>
<text text-anchor="middle" x="1406" y="-130.6" font-family="Times,serif" font-size="14.00">UserCardService</text>
</g>
<!-- UserCardService&#45;&gt;UserCardModule -->
<g id="edge17" class="edge">
<title>UserCardService&#45;&gt;UserCardModule</title>
<path fill="none" stroke="black" d="M1406,-152.83C1406,-173.57 1406,-204.8 1406,-204.8 1406,-204.8 854.76,-204.8 854.76,-204.8"/>
<polygon fill="black" stroke="black" points="854.76,-201.3 844.76,-204.8 854.76,-208.3 854.76,-201.3"/>
</g>
</g>
</svg>
