<?xml version="1.0" encoding="UTF-8" standalone="no"?>
<!DOCTYPE svg PUBLIC "-//W3C//DTD SVG 1.1//EN"
 "http://www.w3.org/Graphics/SVG/1.1/DTD/svg11.dtd">
<!-- Generated by graphviz version 5.0.0 (20220707.1540)
 -->
<!-- Title: dependencies Pages: 1 -->
<svg width="968pt" height="318pt"
 viewBox="0.00 0.00 968.00 317.80" xmlns="http://www.w3.org/2000/svg" xmlns:xlink="http://www.w3.org/1999/xlink">
<g id="graph0" class="graph" transform="scale(1 1) rotate(0) translate(4 313.8)">
<title>dependencies</title>
<polygon fill="white" stroke="transparent" points="-4,4 -4,-313.8 964,-313.8 964,4 -4,4"/>
<text text-anchor="middle" x="480" y="-8.2" font-family="sans-serif" font-size="14.00">dependencies</text>
<g id="clust1" class="cluster">
<title>cluster_AppModule</title>
<polygon fill="none" stroke="black" stroke-dasharray="1,5" points="402,-100.8 402,-301.8 572,-301.8 572,-100.8 402,-100.8"/>
</g>
<g id="clust3" class="cluster">
<title>cluster_AppModule_imports</title>
<polygon fill="none" stroke="black" points="410,-108.8 410,-236.8 564,-236.8 564,-108.8 410,-108.8"/>
</g>
<g id="clust7" class="cluster">
<title>cluster_GithubModule</title>
<polygon fill="none" stroke="black" stroke-dasharray="1,5" points="786,-32.8 786,-244.8 952,-244.8 952,-32.8 786,-32.8"/>
</g>
<g id="clust10" class="cluster">
<title>cluster_GithubModule_exports</title>
<polygon fill="none" stroke="black" points="802,-184.8 802,-236.8 918,-236.8 918,-184.8 802,-184.8"/>
</g>
<g id="clust12" class="cluster">
<title>cluster_GithubModule_providers</title>
<polygon fill="none" stroke="black" points="794,-40.8 794,-92.8 944,-92.8 944,-40.8 794,-40.8"/>
</g>
<g id="clust19" class="cluster">
<title>cluster_S3FileStorageModule</title>
<polygon fill="none" stroke="black" stroke-dasharray="1,5" points="8,-176.8 8,-244.8 394,-244.8 394,-176.8 8,-176.8"/>
</g>
<g id="clust22" class="cluster">
<title>cluster_S3FileStorageModule_exports</title>
<polygon fill="none" stroke="black" points="230,-184.8 230,-236.8 386,-236.8 386,-184.8 230,-184.8"/>
</g>
<g id="clust24" class="cluster">
<title>cluster_S3FileStorageModule_providers</title>
<polygon fill="none" stroke="black" points="16,-184.8 16,-236.8 222,-236.8 222,-184.8 16,-184.8"/>
</g>
<g id="clust25" class="cluster">
<title>cluster_SocialCardModule</title>
<polygon fill="none" stroke="black" stroke-dasharray="1,5" points="580,-100.8 580,-168.8 778,-168.8 778,-100.8 580,-100.8"/>
</g>
<g id="clust30" class="cluster">
<title>cluster_SocialCardModule_providers</title>
<polygon fill="none" stroke="black" points="588,-108.8 588,-160.8 770,-160.8 770,-108.8 588,-108.8"/>
</g>
<!-- S3FileStorageModule -->
<g id="node1" class="node">
<title>S3FileStorageModule</title>
<polygon fill="#8dd3c7" stroke="black" points="556.38,-152.8 553.38,-156.8 532.38,-156.8 529.38,-152.8 417.62,-152.8 417.62,-116.8 556.38,-116.8 556.38,-152.8"/>
<text text-anchor="middle" x="487" y="-130.6" font-family="Times,serif" font-size="14.00">S3FileStorageModule</text>
</g>
<!-- SocialCardModule -->
<g id="node2" class="node">
<title>SocialCardModule</title>
<polygon fill="#8dd3c7" stroke="black" points="555.76,-228.8 552.76,-232.8 531.76,-232.8 528.76,-228.8 434.24,-228.8 434.24,-192.8 555.76,-192.8 555.76,-228.8"/>
<text text-anchor="middle" x="495" y="-206.6" font-family="Times,serif" font-size="14.00">SocialCardModule</text>
</g>
<!-- S3FileStorageModule&#45;&gt;SocialCardModule -->
<g id="edge8" class="edge">
<title>S3FileStorageModule&#45;&gt;SocialCardModule</title>
<path fill="none" stroke="black" d="M495,-152.81C495,-152.81 495,-182.65 495,-182.65"/>
<polygon fill="black" stroke="black" points="491.5,-182.65 495,-192.65 498.5,-182.65 491.5,-182.65"/>
</g>
<!-- AppModule -->
<g id="node3" class="node">
<title>AppModule</title>
<polygon fill="#8dd3c7" stroke="black" points="514.66,-293.8 511.66,-297.8 490.66,-297.8 487.66,-293.8 431.34,-293.8 431.34,-257.8 514.66,-257.8 514.66,-293.8"/>
<text text-anchor="middle" x="473" y="-271.6" font-family="Times,serif" font-size="14.00">AppModule</text>
</g>
<!-- S3FileStorageModule&#45;&gt;AppModule -->
<g id="edge1" class="edge">
<title>S3FileStorageModule&#45;&gt;AppModule</title>
<path fill="none" stroke="black" d="M426.63,-152.94C426.63,-191.03 426.63,-275.8 426.63,-275.8 426.63,-275.8 427.09,-275.8 427.09,-275.8"/>
<polygon fill="black" stroke="black" points="421.25,-279.3 431.25,-275.8 421.25,-272.3 421.25,-279.3"/>
</g>
<!-- S3FileStorageService  -->
<g id="node7" class="node">
<title>S3FileStorageService </title>
<polygon fill="#fb8072" stroke="black" points="378.31,-228.8 237.69,-228.8 237.69,-192.8 378.31,-192.8 378.31,-228.8"/>
<text text-anchor="middle" x="308" y="-206.6" font-family="Times,serif" font-size="14.00">S3FileStorageService </text>
</g>
<!-- S3FileStorageModule&#45;&gt;S3FileStorageService  -->
<g id="edge5" class="edge">
<title>S3FileStorageModule&#45;&gt;S3FileStorageService </title>
<path fill="none" stroke="black" stroke-dasharray="5,2" d="M422.1,-152.81C422.1,-175.29 422.1,-210.8 422.1,-210.8 422.1,-210.8 388.64,-210.8 388.64,-210.8"/>
<polygon fill="black" stroke="black" points="388.64,-207.3 378.64,-210.8 388.64,-214.3 388.64,-207.3"/>
</g>
<!-- SocialCardModule&#45;&gt;AppModule -->
<g id="edge2" class="edge">
<title>SocialCardModule&#45;&gt;AppModule</title>
<path fill="none" stroke="black" d="M474.48,-228.91C474.48,-228.91 474.48,-247.79 474.48,-247.79"/>
<polygon fill="black" stroke="black" points="470.98,-247.79 474.48,-257.79 477.98,-247.79 470.98,-247.79"/>
</g>
<!-- GithubService  -->
<g id="node4" class="node">
<title>GithubService </title>
<polygon fill="#fb8072" stroke="black" points="910.37,-228.8 809.63,-228.8 809.63,-192.8 910.37,-192.8 910.37,-228.8"/>
<text text-anchor="middle" x="860" y="-206.6" font-family="Times,serif" font-size="14.00">GithubService </text>
</g>
<!-- GithubModule -->
<g id="node5" class="node">
<title>GithubModule</title>
<polygon fill="#8dd3c7" stroke="black" points="909.44,-152.8 906.44,-156.8 885.44,-156.8 882.44,-152.8 810.56,-152.8 810.56,-116.8 909.44,-116.8 909.44,-152.8"/>
<text text-anchor="middle" x="860" y="-130.6" font-family="Times,serif" font-size="14.00">GithubModule</text>
</g>
<!-- GithubModule&#45;&gt;SocialCardModule -->
<g id="edge7" class="edge">
<title>GithubModule&#45;&gt;SocialCardModule</title>
<path fill="none" stroke="black" d="M810.6,-134.8C807.74,-134.8 806,-134.8 806,-134.8 806,-134.8 806,-216.8 806,-216.8 806,-216.8 566.07,-216.8 566.07,-216.8"/>
<polygon fill="black" stroke="black" points="566.07,-213.3 556.07,-216.8 566.07,-220.3 566.07,-213.3"/>
</g>
<!-- GithubModule&#45;&gt;GithubService  -->
<g id="edge3" class="edge">
<title>GithubModule&#45;&gt;GithubService </title>
<path fill="none" stroke="black" stroke-dasharray="5,2" d="M860,-152.81C860,-152.81 860,-182.65 860,-182.65"/>
<polygon fill="black" stroke="black" points="856.5,-182.65 860,-192.65 863.5,-182.65 856.5,-182.65"/>
</g>
<!-- GithubService -->
<g id="node6" class="node">
<title>GithubService</title>
<ellipse fill="#fdb462" stroke="black" cx="869" cy="-66.8" rx="66.64" ry="18"/>
<text text-anchor="middle" x="869" y="-62.6" font-family="Times,serif" font-size="14.00">GithubService</text>
</g>
<!-- GithubService&#45;&gt;GithubModule -->
<g id="edge4" class="edge">
<title>GithubService&#45;&gt;GithubModule</title>
<path fill="none" stroke="black" d="M860,-84.67C860,-84.67 860,-106.34 860,-106.34"/>
<polygon fill="black" stroke="black" points="856.5,-106.34 860,-116.34 863.5,-106.34 856.5,-106.34"/>
</g>
<!-- S3FileStorageService -->
<g id="node8" class="node">
<title>S3FileStorageService</title>
<ellipse fill="#fdb462" stroke="black" cx="119" cy="-210.8" rx="94.93" ry="18"/>
<text text-anchor="middle" x="119" y="-206.6" font-family="Times,serif" font-size="14.00">S3FileStorageService</text>
</g>
<!-- S3FileStorageService&#45;&gt;S3FileStorageModule -->
<g id="edge6" class="edge">
<title>S3FileStorageService&#45;&gt;S3FileStorageModule</title>
<path fill="none" stroke="black" d="M119,-192.79C119,-170.31 119,-134.8 119,-134.8 119,-134.8 407.35,-134.8 407.35,-134.8"/>
<polygon fill="black" stroke="black" points="407.35,-138.3 417.35,-134.8 407.35,-131.3 407.35,-138.3"/>
</g>
<!-- SocialCardService -->
<g id="node9" class="node">
<title>SocialCardService</title>
<ellipse fill="#fdb462" stroke="black" cx="679" cy="-134.8" rx="82.81" ry="18"/>
<text text-anchor="middle" x="679" y="-130.6" font-family="Times,serif" font-size="14.00">SocialCardService</text>
</g>
<!-- SocialCardService&#45;&gt;SocialCardModule -->
<g id="edge9" class="edge">
<title>SocialCardService&#45;&gt;SocialCardModule</title>
<path fill="none" stroke="black" d="M679,-152.83C679,-173.57 679,-204.8 679,-204.8 679,-204.8 566.01,-204.8 566.01,-204.8"/>
<polygon fill="black" stroke="black" points="566.01,-201.3 556.01,-204.8 566.01,-208.3 566.01,-201.3"/>
</g>
</g>
</svg>
