<?xml version="1.0" encoding="UTF-8" standalone="no"?>
<!DOCTYPE svg PUBLIC "-//W3C//DTD SVG 1.1//EN"
 "http://www.w3.org/Graphics/SVG/1.1/DTD/svg11.dtd">
<!-- Generated by graphviz version 5.0.0 (20220707.1540)
 -->
<!-- Title: dependencies Pages: 1 -->
<svg width="396pt" height="318pt"
 viewBox="0.00 0.00 396.00 317.80" xmlns="http://www.w3.org/2000/svg" xmlns:xlink="http://www.w3.org/1999/xlink">
<g id="graph0" class="graph" transform="scale(1 1) rotate(0) translate(4 313.8)">
<title>dependencies</title>
<polygon fill="white" stroke="transparent" points="-4,4 -4,-313.8 392,-313.8 392,4 -4,4"/>
<text text-anchor="middle" x="194" y="-8.2" font-family="sans-serif" font-size="14.00">dependencies</text>
<g id="clust1" class="cluster">
<title>cluster_AppModule</title>
<polygon fill="none" stroke="black" stroke-dasharray="1,5" points="193,-176.8 193,-301.8 347,-301.8 347,-176.8 193,-176.8"/>
</g>
<g id="clust3" class="cluster">
<title>cluster_AppModule_imports</title>
<polygon fill="none" stroke="black" points="201,-184.8 201,-236.8 339,-236.8 339,-184.8 201,-184.8"/>
</g>
<g id="clust7" class="cluster">
<title>cluster_GithubModule</title>
<polygon fill="none" stroke="black" stroke-dasharray="1,5" points="8,-32.8 8,-244.8 174,-244.8 174,-32.8 8,-32.8"/>
</g>
<g id="clust10" class="cluster">
<title>cluster_GithubModule_exports</title>
<polygon fill="none" stroke="black" points="41,-184.8 41,-236.8 157,-236.8 157,-184.8 41,-184.8"/>
</g>
<g id="clust12" class="cluster">
<title>cluster_GithubModule_providers</title>
<polygon fill="none" stroke="black" points="16,-40.8 16,-92.8 166,-92.8 166,-40.8 16,-40.8"/>
</g>
<g id="clust19" class="cluster">
<title>cluster_SocialCardModule</title>
<polygon fill="none" stroke="black" stroke-dasharray="1,5" points="182,-100.8 182,-168.8 380,-168.8 380,-100.8 182,-100.8"/>
</g>
<g id="clust24" class="cluster">
<title>cluster_SocialCardModule_providers</title>
<polygon fill="none" stroke="black" points="190,-108.8 190,-160.8 372,-160.8 372,-108.8 190,-108.8"/>
</g>
<!-- SocialCardModule -->
<g id="node1" class="node">
<title>SocialCardModule</title>
<polygon fill="#8dd3c7" stroke="black" points="330.76,-228.8 327.76,-232.8 306.76,-232.8 303.76,-228.8 209.24,-228.8 209.24,-192.8 330.76,-192.8 330.76,-228.8"/>
<text text-anchor="middle" x="270" y="-206.6" font-family="Times,serif" font-size="14.00">SocialCardModule</text>
</g>
<!-- AppModule -->
<g id="node2" class="node">
<title>AppModule</title>
<polygon fill="#8dd3c7" stroke="black" points="311.66,-293.8 308.66,-297.8 287.66,-297.8 284.66,-293.8 228.34,-293.8 228.34,-257.8 311.66,-257.8 311.66,-293.8"/>
<text text-anchor="middle" x="270" y="-271.6" font-family="Times,serif" font-size="14.00">AppModule</text>
</g>
<!-- SocialCardModule&#45;&gt;AppModule -->
<g id="edge1" class="edge">
<title>SocialCardModule&#45;&gt;AppModule</title>
<path fill="none" stroke="black" d="M270,-228.91C270,-228.91 270,-247.79 270,-247.79"/>
<polygon fill="black" stroke="black" points="266.5,-247.79 270,-257.79 273.5,-247.79 266.5,-247.79"/>
</g>
<!-- GithubService  -->
<g id="node3" class="node">
<title>GithubService </title>
<polygon fill="#fb8072" stroke="black" points="149.37,-228.8 48.63,-228.8 48.63,-192.8 149.37,-192.8 149.37,-228.8"/>
<text text-anchor="middle" x="99" y="-206.6" font-family="Times,serif" font-size="14.00">GithubService </text>
</g>
<!-- GithubModule -->
<g id="node4" class="node">
<title>GithubModule</title>
<polygon fill="#8dd3c7" stroke="black" points="148.44,-152.8 145.44,-156.8 124.44,-156.8 121.44,-152.8 49.56,-152.8 49.56,-116.8 148.44,-116.8 148.44,-152.8"/>
<text text-anchor="middle" x="99" y="-130.6" font-family="Times,serif" font-size="14.00">GithubModule</text>
</g>
<!-- GithubModule&#45;&gt;SocialCardModule -->
<g id="edge4" class="edge">
<title>GithubModule&#45;&gt;SocialCardModule</title>
<path fill="none" stroke="black" d="M148.47,-134.8C151.59,-134.8 153.5,-134.8 153.5,-134.8 153.5,-134.8 153.5,-210.8 153.5,-210.8 153.5,-210.8 199.02,-210.8 199.02,-210.8"/>
<polygon fill="black" stroke="black" points="199.02,-214.3 209.02,-210.8 199.02,-207.3 199.02,-214.3"/>
</g>
<!-- GithubModule&#45;&gt;GithubService  -->
<g id="edge2" class="edge">
<title>GithubModule&#45;&gt;GithubService </title>
<path fill="none" stroke="black" stroke-dasharray="5,2" d="M99,-152.81C99,-152.81 99,-182.65 99,-182.65"/>
<polygon fill="black" stroke="black" points="95.5,-182.65 99,-192.65 102.5,-182.65 95.5,-182.65"/>
</g>
<!-- GithubService -->
<g id="node5" class="node">
<title>GithubService</title>
<ellipse fill="#fdb462" stroke="black" cx="91" cy="-66.8" rx="66.64" ry="18"/>
<text text-anchor="middle" x="91" y="-62.6" font-family="Times,serif" font-size="14.00">GithubService</text>
</g>
<!-- GithubService&#45;&gt;GithubModule -->
<g id="edge3" class="edge">
<title>GithubService&#45;&gt;GithubModule</title>
<path fill="none" stroke="black" d="M99,-85.02C99,-85.02 99,-106.53 99,-106.53"/>
<polygon fill="black" stroke="black" points="95.5,-106.53 99,-116.53 102.5,-106.53 95.5,-106.53"/>
</g>
<!-- SocialCardService -->
<g id="node6" class="node">
<title>SocialCardService</title>
<ellipse fill="#fdb462" stroke="black" cx="281" cy="-134.8" rx="82.81" ry="18"/>
<text text-anchor="middle" x="281" y="-130.6" font-family="Times,serif" font-size="14.00">SocialCardService</text>
</g>
<!-- SocialCardService&#45;&gt;SocialCardModule -->
<g id="edge5" class="edge">
<title>SocialCardService&#45;&gt;SocialCardModule</title>
<path fill="none" stroke="black" d="M270,-152.81C270,-152.81 270,-182.65 270,-182.65"/>
<polygon fill="black" stroke="black" points="266.5,-182.65 270,-192.65 273.5,-182.65 266.5,-182.65"/>
</g>
</g>
</svg>
