<?xml version="1.0" encoding="UTF-8" standalone="no"?>
<!DOCTYPE svg PUBLIC "-//W3C//DTD SVG 1.1//EN"
 "http://www.w3.org/Graphics/SVG/1.1/DTD/svg11.dtd">
<!-- Generated by graphviz version 5.0.0 (20220707.1540)
 -->
<!-- Title: dependencies Pages: 1 -->
<svg width="1334pt" height="318pt"
 viewBox="0.00 0.00 1334.00 317.80" xmlns="http://www.w3.org/2000/svg" xmlns:xlink="http://www.w3.org/1999/xlink">
<g id="graph0" class="graph" transform="scale(1 1) rotate(0) translate(4 313.8)">
<title>dependencies</title>
<polygon fill="white" stroke="transparent" points="-4,4 -4,-313.8 1330,-313.8 1330,4 -4,4"/>
<text text-anchor="middle" x="663" y="-8.2" font-family="sans-serif" font-size="14.00">dependencies</text>
<g id="clust1" class="cluster">
<title>cluster_AppModule</title>
<polygon fill="none" stroke="black" stroke-dasharray="1,5" points="402,-100.8 402,-301.8 718,-301.8 718,-100.8 402,-100.8"/>
</g>
<g id="clust3" class="cluster">
<title>cluster_AppModule_imports</title>
<polygon fill="none" stroke="black" points="422,-108.8 422,-236.8 710,-236.8 710,-108.8 422,-108.8"/>
</g>
<g id="clust7" class="cluster">
<title>cluster_GithubModule</title>
<polygon fill="none" stroke="black" stroke-dasharray="1,5" points="1152,-32.8 1152,-244.8 1318,-244.8 1318,-32.8 1152,-32.8"/>
</g>
<g id="clust10" class="cluster">
<title>cluster_GithubModule_exports</title>
<polygon fill="none" stroke="black" points="1160,-184.8 1160,-236.8 1276,-236.8 1276,-184.8 1160,-184.8"/>
</g>
<g id="clust12" class="cluster">
<title>cluster_GithubModule_providers</title>
<polygon fill="none" stroke="black" points="1160,-40.8 1160,-92.8 1310,-92.8 1310,-40.8 1160,-40.8"/>
</g>
<g id="clust19" class="cluster">
<title>cluster_HighlightCardModule</title>
<polygon fill="none" stroke="black" stroke-dasharray="1,5" points="726,-100.8 726,-168.8 950,-168.8 950,-100.8 726,-100.8"/>
</g>
<g id="clust24" class="cluster">
<title>cluster_HighlightCardModule_providers</title>
<polygon fill="none" stroke="black" points="734,-108.8 734,-160.8 942,-160.8 942,-108.8 734,-108.8"/>
</g>
<g id="clust25" class="cluster">
<title>cluster_S3FileStorageModule</title>
<polygon fill="none" stroke="black" stroke-dasharray="1,5" points="8,-176.8 8,-244.8 394,-244.8 394,-176.8 8,-176.8"/>
</g>
<g id="clust28" class="cluster">
<title>cluster_S3FileStorageModule_exports</title>
<polygon fill="none" stroke="black" points="230,-184.8 230,-236.8 386,-236.8 386,-184.8 230,-184.8"/>
</g>
<g id="clust30" class="cluster">
<title>cluster_S3FileStorageModule_providers</title>
<polygon fill="none" stroke="black" points="16,-184.8 16,-236.8 222,-236.8 222,-184.8 16,-184.8"/>
</g>
<g id="clust31" class="cluster">
<title>cluster_UserCardModule</title>
<polygon fill="none" stroke="black" stroke-dasharray="1,5" points="958,-100.8 958,-168.8 1144,-168.8 1144,-100.8 958,-100.8"/>
</g>
<g id="clust36" class="cluster">
<title>cluster_UserCardModule_providers</title>
<polygon fill="none" stroke="black" points="966,-108.8 966,-160.8 1136,-160.8 1136,-108.8 966,-108.8"/>
</g>
<!-- HighlightCardModule -->
<g id="node1" class="node">
<title>HighlightCardModule</title>
<polygon fill="#8dd3c7" stroke="black" points="570.44,-228.8 567.44,-232.8 546.44,-232.8 543.44,-228.8 429.56,-228.8 429.56,-192.8 570.44,-192.8 570.44,-228.8"/>
<text text-anchor="middle" x="500" y="-206.6" font-family="Times,serif" font-size="14.00">HighlightCardModule</text>
</g>
<!-- AppModule -->
<g id="node4" class="node">
<title>AppModule</title>
<polygon fill="#8dd3c7" stroke="black" points="541.66,-293.8 538.66,-297.8 517.66,-297.8 514.66,-293.8 458.34,-293.8 458.34,-257.8 541.66,-257.8 541.66,-293.8"/>
<text text-anchor="middle" x="500" y="-271.6" font-family="Times,serif" font-size="14.00">AppModule</text>
</g>
<!-- HighlightCardModule&#45;&gt;AppModule -->
<g id="edge1" class="edge">
<title>HighlightCardModule&#45;&gt;AppModule</title>
<path fill="none" stroke="black" d="M500,-228.91C500,-228.91 500,-247.79 500,-247.79"/>
<polygon fill="black" stroke="black" points="496.5,-247.79 500,-257.79 503.5,-247.79 496.5,-247.79"/>
</g>
<!-- S3FileStorageModule -->
<g id="node2" class="node">
<title>S3FileStorageModule</title>
<polygon fill="#8dd3c7" stroke="black" points="568.38,-152.8 565.38,-156.8 544.38,-156.8 541.38,-152.8 429.62,-152.8 429.62,-116.8 568.38,-116.8 568.38,-152.8"/>
<text text-anchor="middle" x="499" y="-130.6" font-family="Times,serif" font-size="14.00">S3FileStorageModule</text>
</g>
<!-- S3FileStorageModule&#45;&gt;HighlightCardModule -->
<g id="edge7" class="edge">
<title>S3FileStorageModule&#45;&gt;HighlightCardModule</title>
<path fill="none" stroke="black" d="M476,-152.81C476,-152.81 476,-182.65 476,-182.65"/>
<polygon fill="black" stroke="black" points="472.5,-182.65 476,-192.65 479.5,-182.65 472.5,-182.65"/>
</g>
<!-- UserCardModule -->
<g id="node3" class="node">
<title>UserCardModule</title>
<polygon fill="#8dd3c7" stroke="black" points="701.7,-228.8 698.7,-232.8 677.7,-232.8 674.7,-228.8 588.3,-228.8 588.3,-192.8 701.7,-192.8 701.7,-228.8"/>
<text text-anchor="middle" x="645" y="-206.6" font-family="Times,serif" font-size="14.00">UserCardModule</text>
</g>
<!-- S3FileStorageModule&#45;&gt;UserCardModule -->
<g id="edge12" class="edge">
<title>S3FileStorageModule&#45;&gt;UserCardModule</title>
<path fill="none" stroke="black" d="M568.58,-134.8C606.18,-134.8 645,-134.8 645,-134.8 645,-134.8 645,-182.79 645,-182.79"/>
<polygon fill="black" stroke="black" points="641.5,-182.79 645,-192.79 648.5,-182.79 641.5,-182.79"/>
</g>
<!-- S3FileStorageModule&#45;&gt;AppModule -->
<g id="edge2" class="edge">
<title>S3FileStorageModule&#45;&gt;AppModule</title>
<path fill="none" stroke="black" d="M568.58,-143.8C576.8,-143.8 582.34,-143.8 582.34,-143.8 582.34,-143.8 582.34,-269.8 582.34,-269.8 582.34,-269.8 552.13,-269.8 552.13,-269.8"/>
<polygon fill="black" stroke="black" points="552.13,-266.3 542.13,-269.8 552.13,-273.3 552.13,-266.3"/>
</g>
<!-- S3FileStorageService  -->
<g id="node9" class="node">
<title>S3FileStorageService </title>
<polygon fill="#fb8072" stroke="black" points="378.31,-228.8 237.69,-228.8 237.69,-192.8 378.31,-192.8 378.31,-228.8"/>
<text text-anchor="middle" x="308" y="-206.6" font-family="Times,serif" font-size="14.00">S3FileStorageService </text>
</g>
<!-- S3FileStorageModule&#45;&gt;S3FileStorageService  -->
<g id="edge9" class="edge">
<title>S3FileStorageModule&#45;&gt;S3FileStorageService </title>
<path fill="none" stroke="black" stroke-dasharray="5,2" d="M429.5,-140.8C374.89,-140.8 308,-140.8 308,-140.8 308,-140.8 308,-182.77 308,-182.77"/>
<polygon fill="black" stroke="black" points="304.5,-182.77 308,-192.77 311.5,-182.77 304.5,-182.77"/>
</g>
<!-- UserCardModule&#45;&gt;AppModule -->
<g id="edge3" class="edge">
<title>UserCardModule&#45;&gt;AppModule</title>
<path fill="none" stroke="black" d="M645,-229.08C645,-250.12 645,-281.8 645,-281.8 645,-281.8 551.94,-281.8 551.94,-281.8"/>
<polygon fill="black" stroke="black" points="551.94,-278.3 541.94,-281.8 551.94,-285.3 551.94,-278.3"/>
</g>
<!-- GithubService  -->
<g id="node5" class="node">
<title>GithubService </title>
<polygon fill="#fb8072" stroke="black" points="1268.37,-228.8 1167.63,-228.8 1167.63,-192.8 1268.37,-192.8 1268.37,-228.8"/>
<text text-anchor="middle" x="1218" y="-206.6" font-family="Times,serif" font-size="14.00">GithubService </text>
</g>
<!-- GithubModule -->
<g id="node6" class="node">
<title>GithubModule</title>
<polygon fill="#8dd3c7" stroke="black" points="1262.44,-152.8 1259.44,-156.8 1238.44,-156.8 1235.44,-152.8 1163.56,-152.8 1163.56,-116.8 1262.44,-116.8 1262.44,-152.8"/>
<text text-anchor="middle" x="1213" y="-130.6" font-family="Times,serif" font-size="14.00">GithubModule</text>
</g>
<!-- GithubModule&#45;&gt;HighlightCardModule -->
<g id="edge6" class="edge">
<title>GithubModule&#45;&gt;HighlightCardModule</title>
<path fill="none" stroke="black" d="M1199.28,-152.91C1199.28,-162.7 1199.28,-172.8 1199.28,-172.8 1199.28,-172.8 522.22,-172.8 522.22,-172.8 522.22,-172.8 522.22,-182.69 522.22,-182.69"/>
<polygon fill="black" stroke="black" points="518.72,-182.69 522.22,-192.69 525.72,-182.69 518.72,-182.69"/>
</g>
<!-- GithubModule&#45;&gt;UserCardModule -->
<g id="edge11" class="edge">
<title>GithubModule&#45;&gt;UserCardModule</title>
<path fill="none" stroke="black" d="M1163.52,-134.8C1153.46,-134.8 1145.89,-134.8 1145.89,-134.8 1145.89,-134.8 1145.89,-216.8 1145.89,-216.8 1145.89,-216.8 711.97,-216.8 711.97,-216.8"/>
<polygon fill="black" stroke="black" points="711.97,-213.3 701.97,-216.8 711.97,-220.3 711.97,-213.3"/>
</g>
<!-- GithubModule&#45;&gt;GithubService  -->
<g id="edge4" class="edge">
<title>GithubModule&#45;&gt;GithubService </title>
<path fill="none" stroke="black" stroke-dasharray="5,2" d="M1230.75,-152.81C1230.75,-152.81 1230.75,-182.65 1230.75,-182.65"/>
<polygon fill="black" stroke="black" points="1227.25,-182.65 1230.75,-192.65 1234.25,-182.65 1227.25,-182.65"/>
</g>
<!-- GithubService -->
<g id="node7" class="node">
<title>GithubService</title>
<ellipse fill="#fdb462" stroke="black" cx="1235" cy="-66.8" rx="66.64" ry="18"/>
<text text-anchor="middle" x="1235" y="-62.6" font-family="Times,serif" font-size="14.00">GithubService</text>
</g>
<!-- GithubService&#45;&gt;GithubModule -->
<g id="edge5" class="edge">
<title>GithubService&#45;&gt;GithubModule</title>
<path fill="none" stroke="black" d="M1215.2,-84.31C1215.2,-84.31 1215.2,-106.64 1215.2,-106.64"/>
<polygon fill="black" stroke="black" points="1211.7,-106.64 1215.2,-116.64 1218.7,-106.64 1211.7,-106.64"/>
</g>
<!-- HighlightCardService -->
<g id="node8" class="node">
<title>HighlightCardService</title>
<ellipse fill="#fdb462" stroke="black" cx="838" cy="-134.8" rx="95.57" ry="18"/>
<text text-anchor="middle" x="838" y="-130.6" font-family="Times,serif" font-size="14.00">HighlightCardService</text>
</g>
<!-- HighlightCardService&#45;&gt;HighlightCardModule -->
<g id="edge8" class="edge">
<title>HighlightCardService&#45;&gt;HighlightCardModule</title>
<path fill="none" stroke="black" d="M754.83,-125.8C678.19,-125.8 576.28,-125.8 576.28,-125.8 576.28,-125.8 576.28,-210.8 576.28,-210.8 576.28,-210.8 575.68,-210.8 575.68,-210.8"/>
<polygon fill="black" stroke="black" points="580.29,-207.3 570.29,-210.8 580.29,-214.3 580.29,-207.3"/>
</g>
<!-- S3FileStorageService -->
<g id="node10" class="node">
<title>S3FileStorageService</title>
<ellipse fill="#fdb462" stroke="black" cx="119" cy="-210.8" rx="94.93" ry="18"/>
<text text-anchor="middle" x="119" y="-206.6" font-family="Times,serif" font-size="14.00">S3FileStorageService</text>
</g>
<!-- S3FileStorageService&#45;&gt;S3FileStorageModule -->
<g id="edge10" class="edge">
<title>S3FileStorageService&#45;&gt;S3FileStorageModule</title>
<path fill="none" stroke="black" d="M119,-192.6C119,-168.44 119,-128.8 119,-128.8 119,-128.8 419.3,-128.8 419.3,-128.8"/>
<polygon fill="black" stroke="black" points="419.3,-132.3 429.3,-128.8 419.3,-125.3 419.3,-132.3"/>
</g>
<!-- UserCardService -->
<g id="node11" class="node">
<title>UserCardService</title>
<ellipse fill="#fdb462" stroke="black" cx="1051" cy="-134.8" rx="77" ry="18"/>
<text text-anchor="middle" x="1051" y="-130.6" font-family="Times,serif" font-size="14.00">UserCardService</text>
</g>
<!-- UserCardService&#45;&gt;UserCardModule -->
<g id="edge13" class="edge">
<title>UserCardService&#45;&gt;UserCardModule</title>
<path fill="none" stroke="black" d="M1051,-152.83C1051,-173.57 1051,-204.8 1051,-204.8 1051,-204.8 711.88,-204.8 711.88,-204.8"/>
<polygon fill="black" stroke="black" points="711.88,-201.3 701.88,-204.8 711.88,-208.3 711.88,-201.3"/>
</g>
</g>
</svg>
