<?xml version="1.0" encoding="UTF-8" standalone="no"?>
<!DOCTYPE svg PUBLIC "-//W3C//DTD SVG 1.1//EN"
 "http://www.w3.org/Graphics/SVG/1.1/DTD/svg11.dtd">
<!-- Generated by graphviz version 5.0.0 (20220707.1540)
 -->
<!-- Title: dependencies Pages: 1 -->
<svg width="507pt" height="174pt"
 viewBox="0.00 0.00 507.00 173.80" xmlns="http://www.w3.org/2000/svg" xmlns:xlink="http://www.w3.org/1999/xlink">
<g id="graph0" class="graph" transform="scale(1 1) rotate(0) translate(4 169.8)">
<title>dependencies</title>
<polygon fill="white" stroke="transparent" points="-4,4 -4,-169.8 503,-169.8 503,4 -4,4"/>
<text text-anchor="middle" x="249.5" y="-8.2" font-family="sans-serif" font-size="14.00">dependencies</text>
<g id="clust1" class="cluster">
<title>cluster_InsightCardModule</title>
<polygon fill="none" stroke="black" stroke-dasharray="1,5" points="8,-32.8 8,-157.8 491,-157.8 491,-32.8 8,-32.8"/>
</g>
<g id="clust3" class="cluster">
<title>cluster_InsightCardModule_imports</title>
<polygon fill="none" stroke="black" points="212,-40.8 212,-92.8 483,-92.8 483,-40.8 212,-40.8"/>
</g>
<g id="clust6" class="cluster">
<title>cluster_InsightCardModule_providers</title>
<polygon fill="none" stroke="black" points="16,-40.8 16,-92.8 204,-92.8 204,-40.8 16,-40.8"/>
</g>
<!-- GithubModule -->
<g id="node1" class="node">
<title>GithubModule</title>
<polygon fill="#8dd3c7" stroke="black" points="475.44,-84.8 472.44,-88.8 451.44,-88.8 448.44,-84.8 376.56,-84.8 376.56,-48.8 475.44,-48.8 475.44,-84.8"/>
<text text-anchor="middle" x="426" y="-62.6" font-family="Times,serif" font-size="14.00">GithubModule</text>
</g>
<!-- InsightCardModule -->
<g id="node3" class="node">
<title>InsightCardModule</title>
<polygon fill="#8dd3c7" stroke="black" points="351.66,-149.8 348.66,-153.8 327.66,-153.8 324.66,-149.8 226.34,-149.8 226.34,-113.8 351.66,-113.8 351.66,-149.8"/>
<text text-anchor="middle" x="289" y="-127.6" font-family="Times,serif" font-size="14.00">InsightCardModule</text>
</g>
<!-- GithubModule&#45;&gt;InsightCardModule -->
<g id="edge1" class="edge">
<title>GithubModule&#45;&gt;InsightCardModule</title>
<path fill="none" stroke="black" d="M426,-84.91C426,-104.14 426,-131.8 426,-131.8 426,-131.8 361.89,-131.8 361.89,-131.8"/>
<polygon fill="black" stroke="black" points="361.89,-128.3 351.89,-131.8 361.89,-135.3 361.89,-128.3"/>
</g>
<!-- S3FileStorageModule -->
<g id="node2" class="node">
<title>S3FileStorageModule</title>
<polygon fill="#8dd3c7" stroke="black" points="358.38,-84.8 355.38,-88.8 334.38,-88.8 331.38,-84.8 219.62,-84.8 219.62,-48.8 358.38,-48.8 358.38,-84.8"/>
<text text-anchor="middle" x="289" y="-62.6" font-family="Times,serif" font-size="14.00">S3FileStorageModule</text>
</g>
<!-- S3FileStorageModule&#45;&gt;InsightCardModule -->
<g id="edge2" class="edge">
<title>S3FileStorageModule&#45;&gt;InsightCardModule</title>
<path fill="none" stroke="black" d="M289,-84.91C289,-84.91 289,-103.79 289,-103.79"/>
<polygon fill="black" stroke="black" points="285.5,-103.79 289,-113.79 292.5,-103.79 285.5,-103.79"/>
</g>
<!-- InsightCardService -->
<g id="node4" class="node">
<title>InsightCardService</title>
<ellipse fill="#fdb462" stroke="black" cx="110" cy="-66.8" rx="85.68" ry="18"/>
<text text-anchor="middle" x="110" y="-62.6" font-family="Times,serif" font-size="14.00">InsightCardService</text>
</g>
<!-- InsightCardService&#45;&gt;InsightCardModule -->
<g id="edge3" class="edge">
<title>InsightCardService&#45;&gt;InsightCardModule</title>
<path fill="none" stroke="black" d="M110,-84.91C110,-104.14 110,-131.8 110,-131.8 110,-131.8 216.14,-131.8 216.14,-131.8"/>
<polygon fill="black" stroke="black" points="216.14,-135.3 226.14,-131.8 216.14,-128.3 216.14,-135.3"/>
</g>
</g>
</svg>
