<?xml version="1.0" encoding="UTF-8" standalone="no"?>
<!DOCTYPE svg PUBLIC "-//W3C//DTD SVG 1.1//EN"
 "http://www.w3.org/Graphics/SVG/1.1/DTD/svg11.dtd">
<!-- Generated by graphviz version 5.0.0 (20220707.1540)
 -->
<!-- Title: dependencies Pages: 1 -->
<svg width="334pt" height="174pt"
 viewBox="0.00 0.00 334.00 173.80" xmlns="http://www.w3.org/2000/svg" xmlns:xlink="http://www.w3.org/1999/xlink">
<g id="graph0" class="graph" transform="scale(1 1) rotate(0) translate(4 169.8)">
<title>dependencies</title>
<polygon fill="white" stroke="transparent" points="-4,4 -4,-169.8 330,-169.8 330,4 -4,4"/>
<text text-anchor="middle" x="163" y="-8.2" font-family="sans-serif" font-size="14.00">dependencies</text>
<g id="clust1" class="cluster">
<title>cluster_AppModule</title>
<polygon fill="none" stroke="black" stroke-dasharray="1,5" points="8,-32.8 8,-157.8 318,-157.8 318,-32.8 8,-32.8"/>
</g>
<g id="clust3" class="cluster">
<title>cluster_AppModule_imports</title>
<polygon fill="none" stroke="black" points="16,-40.8 16,-92.8 310,-92.8 310,-40.8 16,-40.8"/>
</g>
<!-- S3FileStorageModule -->
<g id="node1" class="node">
<title>S3FileStorageModule</title>
<polygon fill="#8dd3c7" stroke="black" points="302.38,-84.8 299.38,-88.8 278.38,-88.8 275.38,-84.8 163.62,-84.8 163.62,-48.8 302.38,-48.8 302.38,-84.8"/>
<text text-anchor="middle" x="233" y="-62.6" font-family="Times,serif" font-size="14.00">S3FileStorageModule</text>
</g>
<!-- AppModule -->
<g id="node3" class="node">
<title>AppModule</title>
<polygon fill="#8dd3c7" stroke="black" points="200.66,-149.8 197.66,-153.8 176.66,-153.8 173.66,-149.8 117.34,-149.8 117.34,-113.8 200.66,-113.8 200.66,-149.8"/>
<text text-anchor="middle" x="159" y="-127.6" font-family="Times,serif" font-size="14.00">AppModule</text>
</g>
<!-- S3FileStorageModule&#45;&gt;AppModule -->
<g id="edge1" class="edge">
<title>S3FileStorageModule&#45;&gt;AppModule</title>
<path fill="none" stroke="black" d="M182.19,-84.91C182.19,-84.91 182.19,-103.79 182.19,-103.79"/>
<polygon fill="black" stroke="black" points="178.69,-103.79 182.19,-113.79 185.69,-103.79 178.69,-103.79"/>
</g>
<!-- SocialCardModule -->
<g id="node2" class="node">
<title>SocialCardModule</title>
<polygon fill="#8dd3c7" stroke="black" points="145.76,-84.8 142.76,-88.8 121.76,-88.8 118.76,-84.8 24.24,-84.8 24.24,-48.8 145.76,-48.8 145.76,-84.8"/>
<text text-anchor="middle" x="85" y="-62.6" font-family="Times,serif" font-size="14.00">SocialCardModule</text>
</g>
<!-- SocialCardModule&#45;&gt;AppModule -->
<g id="edge2" class="edge">
<title>SocialCardModule&#45;&gt;AppModule</title>
<path fill="none" stroke="black" d="M131.52,-84.91C131.52,-84.91 131.52,-103.79 131.52,-103.79"/>
<polygon fill="black" stroke="black" points="128.02,-103.79 131.52,-113.79 135.02,-103.79 128.02,-103.79"/>
</g>
</g>
</svg>
