<?xml version="1.0" encoding="UTF-8" standalone="no"?>
<!DOCTYPE svg PUBLIC "-//W3C//DTD SVG 1.1//EN"
 "http://www.w3.org/Graphics/SVG/1.1/DTD/svg11.dtd">
<!-- Generated by graphviz version 5.0.0 (20220707.1540)
 -->
<!-- Title: dependencies Pages: 1 -->
<svg width="628pt" height="174pt"
 viewBox="0.00 0.00 628.00 173.80" xmlns="http://www.w3.org/2000/svg" xmlns:xlink="http://www.w3.org/1999/xlink">
<g id="graph0" class="graph" transform="scale(1 1) rotate(0) translate(4 169.8)">
<title>dependencies</title>
<polygon fill="white" stroke="transparent" points="-4,4 -4,-169.8 624,-169.8 624,4 -4,4"/>
<text text-anchor="middle" x="310" y="-8.2" font-family="sans-serif" font-size="14.00">dependencies</text>
<g id="clust1" class="cluster">
<title>cluster_AppModule</title>
<polygon fill="none" stroke="black" stroke-dasharray="1,5" points="8,-32.8 8,-157.8 612,-157.8 612,-32.8 8,-32.8"/>
</g>
<g id="clust3" class="cluster">
<title>cluster_AppModule_imports</title>
<polygon fill="none" stroke="black" points="16,-40.8 16,-92.8 604,-92.8 604,-40.8 16,-40.8"/>
</g>
<!-- HighlightCardModule -->
<g id="node1" class="node">
<title>HighlightCardModule</title>
<polygon fill="#8dd3c7" stroke="black" points="596.44,-84.8 593.44,-88.8 572.44,-88.8 569.44,-84.8 455.56,-84.8 455.56,-48.8 596.44,-48.8 596.44,-84.8"/>
<text text-anchor="middle" x="526" y="-62.6" font-family="Times,serif" font-size="14.00">HighlightCardModule</text>
</g>
<!-- AppModule -->
<g id="node5" class="node">
<title>AppModule</title>
<polygon fill="#8dd3c7" stroke="black" points="341.66,-149.8 338.66,-153.8 317.66,-153.8 314.66,-149.8 258.34,-149.8 258.34,-113.8 341.66,-113.8 341.66,-149.8"/>
<text text-anchor="middle" x="300" y="-127.6" font-family="Times,serif" font-size="14.00">AppModule</text>
</g>
<!-- HighlightCardModule&#45;&gt;AppModule -->
<g id="edge1" class="edge">
<title>HighlightCardModule&#45;&gt;AppModule</title>
<path fill="none" stroke="black" d="M526,-84.91C526,-104.14 526,-131.8 526,-131.8 526,-131.8 351.72,-131.8 351.72,-131.8"/>
<polygon fill="black" stroke="black" points="351.72,-128.3 341.72,-131.8 351.72,-135.3 351.72,-128.3"/>
</g>
<!-- InsightCardModule -->
<g id="node2" class="node">
<title>InsightCardModule</title>
<polygon fill="#8dd3c7" stroke="black" points="437.66,-84.8 434.66,-88.8 413.66,-88.8 410.66,-84.8 312.34,-84.8 312.34,-48.8 437.66,-48.8 437.66,-84.8"/>
<text text-anchor="middle" x="375" y="-62.6" font-family="Times,serif" font-size="14.00">InsightCardModule</text>
</g>
<!-- InsightCardModule&#45;&gt;AppModule -->
<g id="edge2" class="edge">
<title>InsightCardModule&#45;&gt;AppModule</title>
<path fill="none" stroke="black" d="M327,-84.91C327,-84.91 327,-103.79 327,-103.79"/>
<polygon fill="black" stroke="black" points="323.5,-103.79 327,-113.79 330.5,-103.79 323.5,-103.79"/>
</g>
<!-- S3FileStorageModule -->
<g id="node3" class="node">
<title>S3FileStorageModule</title>
<polygon fill="#8dd3c7" stroke="black" points="294.38,-84.8 291.38,-88.8 270.38,-88.8 267.38,-84.8 155.62,-84.8 155.62,-48.8 294.38,-48.8 294.38,-84.8"/>
<text text-anchor="middle" x="225" y="-62.6" font-family="Times,serif" font-size="14.00">S3FileStorageModule</text>
</g>
<!-- S3FileStorageModule&#45;&gt;AppModule -->
<g id="edge3" class="edge">
<title>S3FileStorageModule&#45;&gt;AppModule</title>
<path fill="none" stroke="black" d="M276.31,-84.91C276.31,-84.91 276.31,-103.79 276.31,-103.79"/>
<polygon fill="black" stroke="black" points="272.81,-103.79 276.31,-113.79 279.81,-103.79 272.81,-103.79"/>
</g>
<!-- UserCardModule -->
<g id="node4" class="node">
<title>UserCardModule</title>
<polygon fill="#8dd3c7" stroke="black" points="137.7,-84.8 134.7,-88.8 113.7,-88.8 110.7,-84.8 24.3,-84.8 24.3,-48.8 137.7,-48.8 137.7,-84.8"/>
<text text-anchor="middle" x="81" y="-62.6" font-family="Times,serif" font-size="14.00">UserCardModule</text>
</g>
<!-- UserCardModule&#45;&gt;AppModule -->
<g id="edge4" class="edge">
<title>UserCardModule&#45;&gt;AppModule</title>
<path fill="none" stroke="black" d="M81,-84.91C81,-104.14 81,-131.8 81,-131.8 81,-131.8 248.29,-131.8 248.29,-131.8"/>
<polygon fill="black" stroke="black" points="248.29,-135.3 258.29,-131.8 248.29,-128.3 248.29,-135.3"/>
</g>
</g>
</svg>
