<?xml version="1.0" encoding="UTF-8" standalone="no"?>
<!DOCTYPE svg PUBLIC "-//W3C//DTD SVG 1.1//EN"
 "http://www.w3.org/Graphics/SVG/1.1/DTD/svg11.dtd">
<!-- Generated by graphviz version 5.0.0 (20220707.1540)
 -->
<!-- Title: dependencies Pages: 1 -->
<svg width="485pt" height="174pt"
 viewBox="0.00 0.00 485.00 173.80" xmlns="http://www.w3.org/2000/svg" xmlns:xlink="http://www.w3.org/1999/xlink">
<g id="graph0" class="graph" transform="scale(1 1) rotate(0) translate(4 169.8)">
<title>dependencies</title>
<polygon fill="white" stroke="transparent" points="-4,4 -4,-169.8 481,-169.8 481,4 -4,4"/>
<text text-anchor="middle" x="238.5" y="-8.2" font-family="sans-serif" font-size="14.00">dependencies</text>
<g id="clust1" class="cluster">
<title>cluster_AppModule</title>
<polygon fill="none" stroke="black" stroke-dasharray="1,5" points="8,-32.8 8,-157.8 469,-157.8 469,-32.8 8,-32.8"/>
</g>
<g id="clust3" class="cluster">
<title>cluster_AppModule_imports</title>
<polygon fill="none" stroke="black" points="16,-40.8 16,-92.8 461,-92.8 461,-40.8 16,-40.8"/>
</g>
<!-- HighlightCardModule -->
<g id="node1" class="node">
<title>HighlightCardModule</title>
<polygon fill="#8dd3c7" stroke="black" points="453.44,-84.8 450.44,-88.8 429.44,-88.8 426.44,-84.8 312.56,-84.8 312.56,-48.8 453.44,-48.8 453.44,-84.8"/>
<text text-anchor="middle" x="383" y="-62.6" font-family="Times,serif" font-size="14.00">HighlightCardModule</text>
</g>
<!-- AppModule -->
<g id="node4" class="node">
<title>AppModule</title>
<polygon fill="#8dd3c7" stroke="black" points="266.66,-149.8 263.66,-153.8 242.66,-153.8 239.66,-149.8 183.34,-149.8 183.34,-113.8 266.66,-113.8 266.66,-149.8"/>
<text text-anchor="middle" x="225" y="-127.6" font-family="Times,serif" font-size="14.00">AppModule</text>
</g>
<!-- HighlightCardModule&#45;&gt;AppModule -->
<g id="edge1" class="edge">
<title>HighlightCardModule&#45;&gt;AppModule</title>
<path fill="none" stroke="black" d="M383,-84.91C383,-104.14 383,-131.8 383,-131.8 383,-131.8 276.93,-131.8 276.93,-131.8"/>
<polygon fill="black" stroke="black" points="276.93,-128.3 266.93,-131.8 276.93,-135.3 276.93,-128.3"/>
</g>
<!-- S3FileStorageModule -->
<g id="node2" class="node">
<title>S3FileStorageModule</title>
<polygon fill="#8dd3c7" stroke="black" points="294.38,-84.8 291.38,-88.8 270.38,-88.8 267.38,-84.8 155.62,-84.8 155.62,-48.8 294.38,-48.8 294.38,-84.8"/>
<text text-anchor="middle" x="225" y="-62.6" font-family="Times,serif" font-size="14.00">S3FileStorageModule</text>
</g>
<!-- S3FileStorageModule&#45;&gt;AppModule -->
<g id="edge2" class="edge">
<title>S3FileStorageModule&#45;&gt;AppModule</title>
<path fill="none" stroke="black" d="M225,-84.91C225,-84.91 225,-103.79 225,-103.79"/>
<polygon fill="black" stroke="black" points="221.5,-103.79 225,-113.79 228.5,-103.79 221.5,-103.79"/>
</g>
<!-- UserCardModule -->
<g id="node3" class="node">
<title>UserCardModule</title>
<polygon fill="#8dd3c7" stroke="black" points="137.7,-84.8 134.7,-88.8 113.7,-88.8 110.7,-84.8 24.3,-84.8 24.3,-48.8 137.7,-48.8 137.7,-84.8"/>
<text text-anchor="middle" x="81" y="-62.6" font-family="Times,serif" font-size="14.00">UserCardModule</text>
</g>
<!-- UserCardModule&#45;&gt;AppModule -->
<g id="edge3" class="edge">
<title>UserCardModule&#45;&gt;AppModule</title>
<path fill="none" stroke="black" d="M81,-84.91C81,-104.14 81,-131.8 81,-131.8 81,-131.8 172.96,-131.8 172.96,-131.8"/>
<polygon fill="black" stroke="black" points="172.96,-135.3 182.96,-131.8 172.96,-128.3 172.96,-135.3"/>
</g>
</g>
</svg>
