<?xml version="1.0" encoding="UTF-8" standalone="no"?>
<!DOCTYPE svg PUBLIC "-//W3C//DTD SVG 1.1//EN"
 "http://www.w3.org/Graphics/SVG/1.1/DTD/svg11.dtd">
<!-- Generated by graphviz version 5.0.0 (20220707.1540)
 -->
<!-- Title: dependencies Pages: 1 -->
<svg width="501pt" height="174pt"
 viewBox="0.00 0.00 501.00 173.80" xmlns="http://www.w3.org/2000/svg" xmlns:xlink="http://www.w3.org/1999/xlink">
<g id="graph0" class="graph" transform="scale(1 1) rotate(0) translate(4 169.8)">
<title>dependencies</title>
<polygon fill="white" stroke="transparent" points="-4,4 -4,-169.8 497,-169.8 497,4 -4,4"/>
<text text-anchor="middle" x="246.5" y="-8.2" font-family="sans-serif" font-size="14.00">dependencies</text>
<g id="clust1" class="cluster">
<title>cluster_SocialCardModule</title>
<polygon fill="none" stroke="black" stroke-dasharray="1,5" points="8,-32.8 8,-157.8 485,-157.8 485,-32.8 8,-32.8"/>
</g>
<g id="clust3" class="cluster">
<title>cluster_SocialCardModule_imports</title>
<polygon fill="none" stroke="black" points="206,-40.8 206,-92.8 477,-92.8 477,-40.8 206,-40.8"/>
</g>
<g id="clust6" class="cluster">
<title>cluster_SocialCardModule_providers</title>
<polygon fill="none" stroke="black" points="16,-40.8 16,-92.8 198,-92.8 198,-40.8 16,-40.8"/>
</g>
<!-- GithubModule -->
<g id="node1" class="node">
<title>GithubModule</title>
<polygon fill="#8dd3c7" stroke="black" points="469.44,-84.8 466.44,-88.8 445.44,-88.8 442.44,-84.8 370.56,-84.8 370.56,-48.8 469.44,-48.8 469.44,-84.8"/>
<text text-anchor="middle" x="420" y="-62.6" font-family="Times,serif" font-size="14.00">GithubModule</text>
</g>
<!-- SocialCardModule -->
<g id="node3" class="node">
<title>SocialCardModule</title>
<polygon fill="#8dd3c7" stroke="black" points="343.76,-149.8 340.76,-153.8 319.76,-153.8 316.76,-149.8 222.24,-149.8 222.24,-113.8 343.76,-113.8 343.76,-149.8"/>
<text text-anchor="middle" x="283" y="-127.6" font-family="Times,serif" font-size="14.00">SocialCardModule</text>
</g>
<!-- GithubModule&#45;&gt;SocialCardModule -->
<g id="edge1" class="edge">
<title>GithubModule&#45;&gt;SocialCardModule</title>
<path fill="none" stroke="black" d="M420,-84.91C420,-104.14 420,-131.8 420,-131.8 420,-131.8 353.89,-131.8 353.89,-131.8"/>
<polygon fill="black" stroke="black" points="353.89,-128.3 343.89,-131.8 353.89,-135.3 353.89,-128.3"/>
</g>
<!-- S3FileStorageModule -->
<g id="node2" class="node">
<title>S3FileStorageModule</title>
<polygon fill="#8dd3c7" stroke="black" points="352.38,-84.8 349.38,-88.8 328.38,-88.8 325.38,-84.8 213.62,-84.8 213.62,-48.8 352.38,-48.8 352.38,-84.8"/>
<text text-anchor="middle" x="283" y="-62.6" font-family="Times,serif" font-size="14.00">S3FileStorageModule</text>
</g>
<!-- S3FileStorageModule&#45;&gt;SocialCardModule -->
<g id="edge2" class="edge">
<title>S3FileStorageModule&#45;&gt;SocialCardModule</title>
<path fill="none" stroke="black" d="M283,-84.91C283,-84.91 283,-103.79 283,-103.79"/>
<polygon fill="black" stroke="black" points="279.5,-103.79 283,-113.79 286.5,-103.79 279.5,-103.79"/>
</g>
<!-- SocialCardService -->
<g id="node4" class="node">
<title>SocialCardService</title>
<ellipse fill="#fdb462" stroke="black" cx="107" cy="-66.8" rx="82.81" ry="18"/>
<text text-anchor="middle" x="107" y="-62.6" font-family="Times,serif" font-size="14.00">SocialCardService</text>
</g>
<!-- SocialCardService&#45;&gt;SocialCardModule -->
<g id="edge3" class="edge">
<title>SocialCardService&#45;&gt;SocialCardModule</title>
<path fill="none" stroke="black" d="M107,-84.91C107,-104.14 107,-131.8 107,-131.8 107,-131.8 211.94,-131.8 211.94,-131.8"/>
<polygon fill="black" stroke="black" points="211.94,-135.3 221.94,-131.8 211.94,-128.3 211.94,-135.3"/>
</g>
</g>
</svg>
