<?xml version="1.0" encoding="UTF-8" standalone="no"?>
<!DOCTYPE svg PUBLIC "-//W3C//DTD SVG 1.1//EN"
 "http://www.w3.org/Graphics/SVG/1.1/DTD/svg11.dtd">
<!-- Generated by graphviz version 5.0.0 (20220707.1540)
 -->
<!-- Title: dependencies Pages: 1 -->
<svg width="344pt" height="174pt"
 viewBox="0.00 0.00 344.00 173.80" xmlns="http://www.w3.org/2000/svg" xmlns:xlink="http://www.w3.org/1999/xlink">
<g id="graph0" class="graph" transform="scale(1 1) rotate(0) translate(4 169.8)">
<title>dependencies</title>
<polygon fill="white" stroke="transparent" points="-4,4 -4,-169.8 340,-169.8 340,4 -4,4"/>
<text text-anchor="middle" x="168" y="-8.2" font-family="sans-serif" font-size="14.00">dependencies</text>
<g id="clust1" class="cluster">
<title>cluster_SocialCardModule</title>
<polygon fill="none" stroke="black" stroke-dasharray="1,5" points="8,-32.8 8,-157.8 328,-157.8 328,-32.8 8,-32.8"/>
</g>
<g id="clust3" class="cluster">
<title>cluster_SocialCardModule_imports</title>
<polygon fill="none" stroke="black" points="206,-40.8 206,-92.8 320,-92.8 320,-40.8 206,-40.8"/>
</g>
<g id="clust6" class="cluster">
<title>cluster_SocialCardModule_providers</title>
<polygon fill="none" stroke="black" points="16,-40.8 16,-92.8 198,-92.8 198,-40.8 16,-40.8"/>
</g>
<!-- GithubModule -->
<g id="node1" class="node">
<title>GithubModule</title>
<polygon fill="#8dd3c7" stroke="black" points="312.44,-84.8 309.44,-88.8 288.44,-88.8 285.44,-84.8 213.56,-84.8 213.56,-48.8 312.44,-48.8 312.44,-84.8"/>
<text text-anchor="middle" x="263" y="-62.6" font-family="Times,serif" font-size="14.00">GithubModule</text>
</g>
<!-- SocialCardModule -->
<g id="node2" class="node">
<title>SocialCardModule</title>
<polygon fill="#8dd3c7" stroke="black" points="243.76,-149.8 240.76,-153.8 219.76,-153.8 216.76,-149.8 122.24,-149.8 122.24,-113.8 243.76,-113.8 243.76,-149.8"/>
<text text-anchor="middle" x="183" y="-127.6" font-family="Times,serif" font-size="14.00">SocialCardModule</text>
</g>
<!-- GithubModule&#45;&gt;SocialCardModule -->
<g id="edge1" class="edge">
<title>GithubModule&#45;&gt;SocialCardModule</title>
<path fill="none" stroke="black" d="M228.83,-84.91C228.83,-84.91 228.83,-103.79 228.83,-103.79"/>
<polygon fill="black" stroke="black" points="225.33,-103.79 228.83,-113.79 232.33,-103.79 225.33,-103.79"/>
</g>
<!-- SocialCardService -->
<g id="node3" class="node">
<title>SocialCardService</title>
<ellipse fill="#fdb462" stroke="black" cx="107" cy="-66.8" rx="82.81" ry="18"/>
<text text-anchor="middle" x="107" y="-62.6" font-family="Times,serif" font-size="14.00">SocialCardService</text>
</g>
<!-- SocialCardService&#45;&gt;SocialCardModule -->
<g id="edge2" class="edge">
<title>SocialCardService&#45;&gt;SocialCardModule</title>
<path fill="none" stroke="black" d="M156.01,-81.55C156.01,-81.55 156.01,-103.39 156.01,-103.39"/>
<polygon fill="black" stroke="black" points="152.51,-103.39 156.01,-113.39 159.51,-103.39 152.51,-103.39"/>
</g>
</g>
</svg>
