<?xml version="1.0" encoding="UTF-8" standalone="no"?>
<!DOCTYPE svg PUBLIC "-//W3C//DTD SVG 1.1//EN"
 "http://www.w3.org/Graphics/SVG/1.1/DTD/svg11.dtd">
<!-- Generated by graphviz version 5.0.0 (20220707.1540)
 -->
<!-- Title: dependencies Pages: 1 -->
<svg width="489pt" height="174pt"
 viewBox="0.00 0.00 489.00 173.80" xmlns="http://www.w3.org/2000/svg" xmlns:xlink="http://www.w3.org/1999/xlink">
<g id="graph0" class="graph" transform="scale(1 1) rotate(0) translate(4 169.8)">
<title>dependencies</title>
<polygon fill="white" stroke="transparent" points="-4,4 -4,-169.8 485,-169.8 485,4 -4,4"/>
<text text-anchor="middle" x="240.5" y="-8.2" font-family="sans-serif" font-size="14.00">dependencies</text>
<g id="clust1" class="cluster">
<title>cluster_UserCardModule</title>
<polygon fill="none" stroke="black" stroke-dasharray="1,5" points="8,-32.8 8,-157.8 473,-157.8 473,-32.8 8,-32.8"/>
</g>
<g id="clust3" class="cluster">
<title>cluster_UserCardModule_imports</title>
<polygon fill="none" stroke="black" points="194,-40.8 194,-92.8 465,-92.8 465,-40.8 194,-40.8"/>
</g>
<g id="clust6" class="cluster">
<title>cluster_UserCardModule_providers</title>
<polygon fill="none" stroke="black" points="16,-40.8 16,-92.8 186,-92.8 186,-40.8 16,-40.8"/>
</g>
<!-- GithubModule -->
<g id="node1" class="node">
<title>GithubModule</title>
<polygon fill="#8dd3c7" stroke="black" points="457.44,-84.8 454.44,-88.8 433.44,-88.8 430.44,-84.8 358.56,-84.8 358.56,-48.8 457.44,-48.8 457.44,-84.8"/>
<text text-anchor="middle" x="408" y="-62.6" font-family="Times,serif" font-size="14.00">GithubModule</text>
</g>
<!-- UserCardModule -->
<g id="node3" class="node">
<title>UserCardModule</title>
<polygon fill="#8dd3c7" stroke="black" points="327.7,-149.8 324.7,-153.8 303.7,-153.8 300.7,-149.8 214.3,-149.8 214.3,-113.8 327.7,-113.8 327.7,-149.8"/>
<text text-anchor="middle" x="271" y="-127.6" font-family="Times,serif" font-size="14.00">UserCardModule</text>
</g>
<!-- GithubModule&#45;&gt;UserCardModule -->
<g id="edge1" class="edge">
<title>GithubModule&#45;&gt;UserCardModule</title>
<path fill="none" stroke="black" d="M408,-84.91C408,-104.14 408,-131.8 408,-131.8 408,-131.8 337.91,-131.8 337.91,-131.8"/>
<polygon fill="black" stroke="black" points="337.91,-128.3 327.91,-131.8 337.91,-135.3 337.91,-128.3"/>
</g>
<!-- S3FileStorageModule -->
<g id="node2" class="node">
<title>S3FileStorageModule</title>
<polygon fill="#8dd3c7" stroke="black" points="340.38,-84.8 337.38,-88.8 316.38,-88.8 313.38,-84.8 201.62,-84.8 201.62,-48.8 340.38,-48.8 340.38,-84.8"/>
<text text-anchor="middle" x="271" y="-62.6" font-family="Times,serif" font-size="14.00">S3FileStorageModule</text>
</g>
<!-- S3FileStorageModule&#45;&gt;UserCardModule -->
<g id="edge2" class="edge">
<title>S3FileStorageModule&#45;&gt;UserCardModule</title>
<path fill="none" stroke="black" d="M271,-84.91C271,-84.91 271,-103.79 271,-103.79"/>
<polygon fill="black" stroke="black" points="267.5,-103.79 271,-113.79 274.5,-103.79 267.5,-103.79"/>
</g>
<!-- UserCardService -->
<g id="node4" class="node">
<title>UserCardService</title>
<ellipse fill="#fdb462" stroke="black" cx="101" cy="-66.8" rx="77" ry="18"/>
<text text-anchor="middle" x="101" y="-62.6" font-family="Times,serif" font-size="14.00">UserCardService</text>
</g>
<!-- UserCardService&#45;&gt;UserCardModule -->
<g id="edge3" class="edge">
<title>UserCardService&#45;&gt;UserCardModule</title>
<path fill="none" stroke="black" d="M101,-84.91C101,-104.14 101,-131.8 101,-131.8 101,-131.8 204.39,-131.8 204.39,-131.8"/>
<polygon fill="black" stroke="black" points="204.39,-135.3 214.39,-131.8 204.39,-128.3 204.39,-135.3"/>
</g>
</g>
</svg>
