<?xml version="1.0" encoding="UTF-8" standalone="no"?>
<!DOCTYPE svg PUBLIC "-//W3C//DTD SVG 1.1//EN"
 "http://www.w3.org/Graphics/SVG/1.1/DTD/svg11.dtd">
<!-- Generated by graphviz version 5.0.0 (20220707.1540)
 -->
<!-- Title: dependencies Pages: 1 -->
<svg width="246pt" height="247pt"
 viewBox="0.00 0.00 246.00 246.80" xmlns="http://www.w3.org/2000/svg" xmlns:xlink="http://www.w3.org/1999/xlink">
<g id="graph0" class="graph" transform="scale(1 1) rotate(0) translate(4 242.8)">
<title>dependencies</title>
<polygon fill="white" stroke="transparent" points="-4,4 -4,-242.8 242,-242.8 242,4 -4,4"/>
<text text-anchor="middle" x="119" y="-8.2" font-family="sans-serif" font-size="14.00">dependencies</text>
<g id="clust1" class="cluster">
<title>cluster_S3FileStorageModule</title>
<polygon fill="none" stroke="black" stroke-dasharray="1,5" points="8,-32.8 8,-230.8 230,-230.8 230,-32.8 8,-32.8"/>
</g>
<g id="clust4" class="cluster">
<title>cluster_S3FileStorageModule_exports</title>
<polygon fill="none" stroke="black" points="41,-170.8 41,-222.8 197,-222.8 197,-170.8 41,-170.8"/>
</g>
<g id="clust6" class="cluster">
<title>cluster_S3FileStorageModule_providers</title>
<polygon fill="none" stroke="black" points="16,-40.8 16,-92.8 222,-92.8 222,-40.8 16,-40.8"/>
</g>
<!-- S3FileStorageService  -->
<g id="node1" class="node">
<title>S3FileStorageService </title>
<polygon fill="#fb8072" stroke="black" points="189.31,-214.8 48.69,-214.8 48.69,-178.8 189.31,-178.8 189.31,-214.8"/>
<text text-anchor="middle" x="119" y="-192.6" font-family="Times,serif" font-size="14.00">S3FileStorageService </text>
</g>
<!-- S3FileStorageModule -->
<g id="node2" class="node">
<title>S3FileStorageModule</title>
<polygon fill="#8dd3c7" stroke="black" points="188.38,-149.8 185.38,-153.8 164.38,-153.8 161.38,-149.8 49.62,-149.8 49.62,-113.8 188.38,-113.8 188.38,-149.8"/>
<text text-anchor="middle" x="119" y="-127.6" font-family="Times,serif" font-size="14.00">S3FileStorageModule</text>
</g>
<!-- S3FileStorageModule&#45;&gt;S3FileStorageService  -->
<g id="edge1" class="edge">
<title>S3FileStorageModule&#45;&gt;S3FileStorageService </title>
<path fill="none" stroke="black" stroke-dasharray="5,2" d="M119,-149.91C119,-149.91 119,-168.79 119,-168.79"/>
<polygon fill="black" stroke="black" points="115.5,-168.79 119,-178.79 122.5,-168.79 115.5,-168.79"/>
</g>
<!-- S3FileStorageService -->
<g id="node3" class="node">
<title>S3FileStorageService</title>
<ellipse fill="#fdb462" stroke="black" cx="119" cy="-66.8" rx="94.93" ry="18"/>
<text text-anchor="middle" x="119" y="-62.6" font-family="Times,serif" font-size="14.00">S3FileStorageService</text>
</g>
<!-- S3FileStorageService&#45;&gt;S3FileStorageModule -->
<g id="edge2" class="edge">
<title>S3FileStorageService&#45;&gt;S3FileStorageModule</title>
<path fill="none" stroke="black" d="M119,-84.91C119,-84.91 119,-103.79 119,-103.79"/>
<polygon fill="black" stroke="black" points="115.5,-103.79 119,-113.79 122.5,-103.79 115.5,-103.79"/>
</g>
</g>
</svg>
